<?xml version="1.0" encoding="UTF-8"?>
<svg version="1.1" viewBox="-178.3 -167.1 1e3 700" xmlns="http://www.w3.org/2000/svg"><path d="m79.902 323.1c3.9998 0 7.3001 1.4 10.1 4.1998 2.8 2.8 4.1998 6.1999 4.1998 10.1v49.598h-50.698c-3.9998 0-7.3001-1.4-10.1-4.1998-2.8-2.8-4.1998-6.1999-4.1998-10.1v-23.6h53.098v-11.7c0-0.69996-0.19993-1.2-0.7-1.7-0.49999-0.49999-0.99998-0.7-1.7-0.7h-50.698v-11.9zm2.4 51.998v-14.1h-41.2v11.7c0 0.69997 0.19993 1.2 0.7 1.7 0.49999 0.49999 0.99998 0.7 1.7 0.7zm114.7-51.998h12.7l-24 63.9h-9.7001l-21.5-47.501-20.3 47.501-0.19994-0.10016 0.10016 0.10016h-9.5999l-25.1-63.9h12.6l17.3 42.398 18.4-42.398h13.6l19.5 42.398zm67.2 0c3.9998 0 7.3001 1.4 10.1 4.1998 2.8 2.8 4.1998 6.1999 4.1998 10.1v23.6h-53.098v11.7c0 0.69996 0.19994 1.2 0.7 1.7 0.49999 0.49999 0.99998 0.7 1.7 0.7h50.698v11.9h-50.698c-3.9998 0-7.3001-1.4-10.1-4.1998-2.8-2.8-4.1998-6.1999-4.1998-10.1v-35.3c0-3.9998 1.4-7.2997 4.1998-10.1 2.8-2.8 6.1999-4.1998 10.1-4.1998zm-38.8 26h41.2v-11.7c0-0.69997-0.19994-1.2-0.70001-1.7-0.49999-0.49999-0.99998-0.7-1.7-0.7h-36.4c-0.7 0-1.2 0.19993-1.7 0.7-0.49999 0.49999-0.7 1-0.7 1.7zm129-11.6v2.4h-11.9v-2.4c0-0.7-0.19993-1.2-0.7-1.7-0.49999-0.49998-0.99998-0.7-1.7-0.7h-36.4c-0.7 0-1.2 0.19994-1.7 0.7-0.49999 0.49999-0.7 0.99998-0.7 1.7v9.2998c0 0.7 0.19994 1.2 0.7 1.7 0.49999 0.49999 0.99999 0.7 1.7 0.7h36.4c3.9998 0 7.3001 1.4 10.1 4.1998 2.8 2.8 4.1998 6.1999 4.1998 10.1v9.2998c0 3.9998-1.4 7.3001-4.1998 10.1-2.8 2.8-6.1999 4.1998-10.1 4.1998h-36.4c-3.9998 0-7.3001-1.4-10.1-4.1998-2.8-2.8-4.1998-6.1999-4.1998-10.1v-2.4h11.9v2.4c0 0.7 0.19994 1.2 0.7 1.7 0.49999 0.49999 0.99999 0.69997 1.7 0.69997h36.4c0.7 0 1.2-0.19994 1.7-0.69997 0.49999-0.50002 0.7-1 0.7-1.7v-9.2998c0-0.7-0.19993-1.2-0.7-1.7-0.49999-0.49999-0.99998-0.7-1.7-0.7h-36.4c-3.9998 0-7.3001-1.4-10.1-4.1998-2.8-2.8-4.1998-6.1999-4.1998-10.1v-9.2998c0-3.9998 1.4-7.3001 4.1998-10.1 2.8-2.8 6.1999-4.1998 10.1-4.1998h36.4c3.9998 0 7.3001 1.4 10.1 4.1998 2.8 2.7 4.1998 6.1001 4.1998 10.1zm25.2-14.4h36.4c3.9999 0 7.3001 1.4 10.1 4.1998 2.8 2.8 4.1998 6.1999 4.1998 10.1v35.3c0 3.9998-1.4 7.2997-4.1998 10.1-2.8 2.8-6.1999 4.1998-10.1 4.1998h-36.4c-3.9999 0-7.3001-1.4-10.1-4.1998-2.7999-2.8-4.1998-6.1999-4.1998-10.1v-35.3c0-3.9998 1.4-7.2997 4.1998-10.1 2.8-2.8 6.1999-4.1998 10.1-4.1998zm36.4 11.9h-36.4c-0.7 0-1.2 0.19993-1.7 0.7-0.5 0.49999-0.7 1-0.7 1.7v35.3c0 0.69996 0.1999 1.2 0.7 1.7 0.5 0.49999 1 0.7 1.7 0.7h36.4c0.7 0 1.2-0.19994 1.7-0.7 0.5-0.49999 0.7-1 0.7-1.7v-35.3c0-0.69996-0.1999-1.2-0.7-1.7-0.5-0.39999-1-0.7-1.7-0.7zm107.5-11.9c3.9998 0 7.2997 1.4 10.1 4.1998 2.8 2.8 4.1998 6.1999 4.1998 10.1v49.598h-11.8v-49.598c0-0.69996-0.1999-1.2-0.6999-1.7-0.5001-0.49999-1.1001-0.7-1.8-0.7h-25.2c-0.7 0-1.2 0.19993-1.7 0.7-0.5 0.49999-0.7 1-0.7 1.7v49.598h-11.9v-49.598c0-0.69996-0.1999-1.2-0.7-1.7-0.5-0.49999-1-0.7-1.7-0.7h-25.3c-0.7 0-1.2 0.19993-1.7 0.7-0.5 0.49999-0.7 1-0.7 1.7v49.598h-11.9v-63.9zm76.501 0c3.9998 0 7.3001 1.4 10.1 4.1998 2.8 2.8 4.1998 6.1999 4.1998 10.1v23.6h-53.098v11.7c0 0.69996 0.1999 1.2 0.7 1.7 0.5 0.49999 1 0.7 1.7 0.7h50.698v11.9h-50.698c-3.9999 0-7.3001-1.4-10.1-4.1998-2.8-2.8-4.1998-6.1999-4.1998-10.1v-35.3c0-3.9998 1.4-7.2997 4.1998-10.1 2.8-2.8 6.1999-4.1998 10.1-4.1998zm-38.8 26h41.2v-11.7c0-0.69997-0.2-1.2-0.7-1.7s-1-0.7-1.7-0.7h-36.4c-0.7 0-1.2 0.19993-1.6999 0.7-0.5001 0.49999-0.7 1-0.7 1.7z" fill="#494368" stroke-width=".99998"/><path d="m614.19 91.002-150-137.6-21.1 23 125 114.6h-492.7l125-114.7-21.1-23-150 137.7h-0.10016v90.7c0 41 39.5 74.399 87.998 74.399h92.5c48.499 0 87.998-33.4 87.998-74.399v-59.599h48v59.599c0 41 39.5 74.399 87.998 74.399h92.5c48.499 0 87.998-33.4 87.998-74.399z" fill="#67ea94" stroke-width=".99998"/><path d="m189.55 150.83-46.983 68.904-9.9106-6.7581 51.93-76.157c1.1156-1.6369 2.9688-2.6167 4.9496-2.6192 1.9816-2e-3 3.8354 0.97496 4.9546 2.6102l52.051 76.036-9.8981 6.7759z" fill="#2c2d3c" fill-rule="evenodd" stroke-linecap="round" stroke-width="3.7795" vector-effect="non-scaling-stroke"/><g transform="matrix(.82223 0 0 .82223 112.94 175.97)"><path transform="translate(-115.14,-528.06)" d="m87.642 581.4 67.115-98.421-12.119-8.264-67.115 98.421z" fill="#2c2d3c" fill-rule="evenodd" stroke-linecap="round" vector-effect="non-scaling-stroke"/></g><path d="m506.03 150.83-46.983 68.904-9.9106-6.7581 51.93-76.157c1.1156-1.6369 2.9688-2.6167 4.9497-2.6192 1.9816-2e-3 3.8354 0.97496 4.9545 2.6102l52.051 76.036-9.8985 6.7759z" fill="#2c2d3c" fill-rule="evenodd" stroke-linecap="round" stroke-width="3.7795" vector-effect="non-scaling-stroke"/><g transform="matrix(.82223 0 0 .82223 429.45 175.97)"><path transform="translate(-115.14,-528.06)" d="m87.642 581.4 67.115-98.421-12.119-8.264-67.115 98.421z" fill="#2c2d3c" fill-rule="evenodd" stroke-linecap="round" vector-effect="non-scaling-stroke"/></g></svg>
